<svg width="20" height="18" viewBox="0 0 20 18" fill="none" xmlns="http://www.w3.org/2000/svg">
<path d="M18.75 7.74986H3.925L8.4625 2.29986C8.67467 2.04459 8.77675 1.71548 8.74628 1.38495C8.7158 1.05442 8.55527 0.74953 8.3 0.537356C8.04473 0.325183 7.71563 0.223106 7.3851 0.25358C7.05456 0.284055 6.74967 0.444586 6.5375 0.699856L0.2875 8.19986C0.245451 8.25951 0.207849 8.32218 0.175 8.38736C0.175 8.44986 0.175 8.48736 0.0875002 8.54986C0.0308421 8.69318 0.0011764 8.84575 0 8.99986C0.0011764 9.15397 0.0308421 9.30653 0.0875002 9.44986C0.0875002 9.51236 0.0874998 9.54986 0.175 9.61236C0.207849 9.67753 0.245451 9.7402 0.2875 9.79986L6.5375 17.2999C6.65503 17.441 6.8022 17.5544 6.96856 17.6322C7.13491 17.71 7.31636 17.7502 7.5 17.7499C7.79207 17.7504 8.07511 17.6487 8.3 17.4624C8.42657 17.3574 8.5312 17.2285 8.60789 17.0831C8.68458 16.9377 8.73183 16.7785 8.74692 16.6148C8.76202 16.4511 8.74466 16.286 8.69586 16.129C8.64705 15.972 8.56775 15.8262 8.4625 15.6999L3.925 10.2499H18.75C19.0815 10.2499 19.3995 10.1182 19.6339 9.88374C19.8683 9.64932 20 9.33138 20 8.99986C20 8.66834 19.8683 8.35039 19.6339 8.11597C19.3995 7.88155 19.0815 7.74986 18.75 7.74986Z" fill="#F53838"/>
</svg>
